<?xml version="1.0" standalone="no"?>
<!DOCTYPE svg PUBLIC "-//W3C//DTD SVG 20010904//EN"
 "http://www.w3.org/TR/2001/REC-SVG-20010904/DTD/svg10.dtd">
<svg version="1.0" xmlns="http://www.w3.org/2000/svg"
 width="1024.000000pt" height="1024.000000pt" viewBox="0 0 1024.000000 1024.000000"
 preserveAspectRatio="xMidYMid meet">
<metadata>
Created by potrace 1.14, written by Peter Selinger 2001-2017
</metadata>
<g transform="translate(0.000000,1024.000000) scale(0.100000,-0.100000)"
fill="#000000" stroke="none">
<path d="M4955 8141 c-99 -17 -111 -19 -175 -35 -68 -18 -198 -64 -215 -76 -5
-4 -20 -11 -33 -14 -29 -10 -128 -68 -227 -135 -106 -73 -276 -245 -352 -356
-111 -164 -192 -349 -233 -535 -11 -47 -20 -102 -20 -122 l0 -38 -124 0 c-120
0 -124 -1 -128 -22 -2 -13 -2 -105 0 -205 l4 -183 119 0 c66 0 119 -1 119 -2
7 -41 33 -161 48 -218 20 -74 34 -113 73 -197 10 -24 19 -45 19 -47 0 -3 22
-43 48 -89 167 -291 439 -529 724 -637 l103 -39 3 -254 2 -254 -167 -6 c-135
-4 -179 -9 -227 -26 -69 -25 -127 -57 -176 -100 -19 -17 -38 -31 -41 -31 -3 0
-25 -24 -49 -54 l-43 -54 -67 68 c-49 50 -87 78 -146 106 -74 36 -86 38 -190
42 -133 5 -199 -11 -284 -66 -96 -63 -163 -139 -211 -237 l-44 -90 1 -130 c1
-105 5 -141 21 -186 38 -102 100 -184 190 -251 l53 -39 2 -772 3 -772 188 -3
187 -2 0 745 0 746 68 31 c37 16 82 41 100 55 l32 24 0 -345 0 -345 125 -3
126 -3 2 -450 2 -450 185 0 185 0 3 183 2 182 219 0 c120 0 394 -3 609 -7
l392 -6 0 -174 c0 -158 2 -173 18 -174 9 0 94 -1 187 -2 l170 -2 3 453 2 452
120 0 120 0 0 336 0 335 28 -19 c91 -65 193 -89 305 -73 40 6 82 13 93 17 26
7 30 -7 74 -281 17 -104 44 -271 60 -370 90 -560 120 -746 127 -795 l8 -55
187 0 c102 0 190 3 194 7 7 8 -39 340 -58 413 -6 22 -16 81 -23 130 -8 50 -27
171 -44 270 -17 99 -40 241 -51 315 -12 74 -30 182 -40 240 -19 102 -41 239
-61 370 -7 45 -7 101 1 185 13 133 6 199 -32 295 -69 176 -242 305 -428 319
-139 12 -236 -14 -340 -91 -56 -42 -59 -45 -97 -92 l-22 -28 -61 66 c-73 78
-152 132 -240 164 -53 20 -92 25 -213 31 l-149 6 1 248 c0 137 3 252 6 256 2
5 33 19 67 31 454 167 812 591 913 1081 8 41 17 84 20 96 5 21 11 22 123 25
l117 3 0 200 0 200 -120 5 -120 5 -17 100 c-23 135 -68 269 -134 401 -63 126
-73 141 -176 273 -197 251 -473 426 -798 506 -89 23 -132 27 -290 30 -102 2
-207 0 -235 -4z m450 -395 c453 -107 786 -511 837 -1013 14 -141 3 -252 -42
-418 -73 -269 -248 -509 -482 -658 -81 -51 -183 -95 -298 -128 -118 -34 -346
-38 -481 -10 -148 32 -319 104 -410 174 -105 80 -165 137 -226 214 -57 73
-123 171 -123 185 0 2 91 3 203 3 167 0 212 3 262 18 256 79 418 323 385 582
-30 237 -228 433 -475 470 -5 1 -92 3 -192 3 -101 1 -183 6 -183 10 0 25 134
206 204 277 152 153 318 244 536 295 107 25 373 23 485 -4z m-875 -956 c137
-38 167 -219 49 -297 l-42 -28 -246 0 -246 0 -3 168 -2 167 227 0 c126 0 244
-5 263 -10z m1281 -2506 c8 -6 34 -16 59 -23 65 -18 87 -35 112 -89 23 -47 23
-51 26 -534 l3 -487 -128 -3 -128 -3 0 -158 0 -157 -607 0 -608 0 0 155 c0
117 -3 155 -12 156 -7 1 -65 2 -128 3 l-115 1 2 460 c2 461 5 542 25 603 9 31
11 32 27 18 16 -15 19 -14 36 4 10 11 41 31 69 45 l51 26 651 -3 c437 -2 656
-7 665 -14z"/>
<path d="M5480 6765 l0 -135 210 0 210 0 0 135 0 135 -210 0 -210 0 0 -135z"/>
<path d="M4940 5860 l0 -100 215 0 215 0 0 100 0 100 -215 0 -215 0 0 -100z"/>
<path d="M9920 80 l0 -80 160 0 160 0 0 80 0 80 -160 0 -160 0 0 -80z"/>
</g>
</svg>
